<?xml version="1.0" encoding="UTF-8"?>
<svg xmlns="http://www.w3.org/2000/svg" xmlns:xlink="http://www.w3.org/1999/xlink" id="Layer_4" viewBox="0 0 1063 517"><defs><linearGradient id="linear-gradient" x1="471.69" y1="324.59" x2="662.01" y2="265.25" gradientUnits="userSpaceOnUse"><stop offset="0" stop-color="#eee0ff"/><stop offset="1" stop-color="#aee6f2"/></linearGradient><linearGradient id="linear-gradient-2" x1="623.63" y1="347.33" x2="799.77" y2="292.4" xlink:href="#linear-gradient"/><linearGradient id="linear-gradient-3" x1="639.31" y1="319.86" x2="666.88" y2="319.86" gradientUnits="userSpaceOnUse"><stop offset="0" stop-color="#c477ff"/><stop offset=".48" stop-color="#00bee8"/><stop offset="1" stop-color="#00e2af"/></linearGradient><linearGradient id="linear-gradient-4" x1="206.26" y1="358.99" x2="369.28" y2="358.99" gradientUnits="userSpaceOnUse"><stop offset="0" stop-color="#b45ff9"/><stop offset="0" stop-color="#b45ef9"/><stop offset=".48" stop-color="#1ab8e8"/><stop offset="1" stop-color="#21e6ad"/></linearGradient><linearGradient id="linear-gradient-5" x1="316.61" y1="372.67" x2="372.68" y2="372.67" xlink:href="#linear-gradient-4"/><linearGradient id="linear-gradient-6" x1="525.66" y1="311.69" x2="701.68" y2="311.69" xlink:href="#linear-gradient-4"/><linearGradient id="linear-gradient-7" x1="409.65" y1="194.78" x2="424.37" y2="194.78" xlink:href="#linear-gradient-4"/><linearGradient id="linear-gradient-8" x1="722.23" y1="74.3" x2="722.23" y2="202.88" xlink:href="#linear-gradient-4"/><clipPath id="clippath"><path d="M305.22 472.94c-59.94 20.21-122.91-18.99-145.51-91.58-18.97-60.96-21.3-138.48 5.32-210.45C206.18 59.62 308.99 1.11 390.33 28.62c81.35 27.51 201.61 138.76 341.33 119.13 139.72-19.63 206.23 9.06 180.73 139.6s-164.44 258.01-326.18 187.8c-107.64-46.76-218.77-23.17-280.99-2.21z" style="fill:none"/></clipPath><style>.cls-2,.cls-3,.cls-4{fill:none}.cls-9{fill-rule:evenodd}.cls-13{fill:#02024e}.cls-2{stroke:#0cc1e9;stroke-width:2px}.cls-2,.cls-3{stroke-linecap:round;stroke-linejoin:round}.cls-3,.cls-4{stroke:#02024e;stroke-width:2.81px}.cls-9{fill:#b45ef9}.cls-4{stroke-miterlimit:10}</style></defs><path d="M305.22 472.94c-59.94 20.21-122.91-18.99-145.51-91.58-18.97-60.96-21.3-138.48 5.32-210.45C206.18 59.62 308.99 1.11 390.33 28.62c81.35 27.51 201.61 138.76 341.33 119.13 139.72-19.63 206.23 9.06 180.73 139.6s-164.44 258.01-326.18 187.8c-107.64-46.76-218.77-23.17-280.99-2.21z" style="fill:#fff" id="Artwork_140"/><rect x="494.46" y="190.88" width="144.78" height="208.09" rx="1.58" ry="1.58" style="fill:url(#linear-gradient)"/><path class="cls-2" transform="rotate(90 566.85 294.92)" d="M467.29 227.02h199.12v135.81H467.29z"/><path class="cls-2" d="M498.94 245.25h135.81M498.94 294.99h135.81M498.94 344.74h135.81M534.32 216.51h63.14v8.93h-63.14zM534.32 265.66h63.14v8.93h-63.14zM534.32 314.8h63.14v8.93h-63.14zM534.32 363.95h63.14v8.93h-63.14z"/><g><rect x="639.31" y="240.76" width="144.77" height="158.2" rx="1.58" ry="1.58" style="fill:url(#linear-gradient-2)"/><path d="M666.88 398.96H640.9c-.88 0-1.58-.71-1.58-1.58V242.35c0-.88.71-1.58 1.58-1.58h9.74l16.24 158.2z" style="fill:url(#linear-gradient-3);opacity:.2"/><path class="cls-2" transform="rotate(90 711.7 319.86)" d="M637.08 251.96h149.23v135.81H637.08z"/><path class="cls-2" d="M643.8 294.99h135.8M643.8 344.74h135.8M679.17 265.66h63.14v8.93h-63.14zM679.17 314.8h63.14v8.93h-63.14zM679.17 363.95h63.14v8.93h-63.14z"/></g><g style="clip-path:url(#clippath)"><path class="cls-9" d="m743 210.59 9.88-8.24c1.1-.95 2.5-1.47 3.95-1.46a4.328 4.328 0 0 1 4.57 4.07c.05.88-.17 1.76-.63 2.52l-16.64 26.34a16.112 16.112 0 0 1-11.64 7.42l-27.09 3.56-5.34 8.38c-48.1 82.11-83.47 122.06-106.11 119.87-22.96-2.22-45.68-14.33-68.14-36.33l-7.57 147.42c-27.71 11.09-72.71 15.4-100.09 15.4-18.99 0-93.47-20.11-93.47-20.11 4.01-8.16 7.23-16.68 9.61-25.45-58.74-40.32-86.97-61.05-94.34-67.91-11.09-10.29-59.03-35.07-16.2-90.12 42.83-55.06 126.13-85.28 150.59-85.28h80.35c64.42 7.38 110.81 31.07 139.16 71.06-.56-.49 26.21-18.88 80.31-55.18 8.12-7.24 12.82-13.28 19.37-13.28 4.77-2.72 14.15-.53 22.21 2.24a28.116 28.116 0 0 0 27.25-4.98m-423.43 119.8L297.99 340l30.83 57.07-9.26-66.73z"/><path class="cls-3" d="M594.61 281.85s0 0 0 0l-9.59 58.97"/><path d="M244.66 348.18c23.51 31.42 94.8 99.97 105.11 97.37 7.37-.67 11.08 1.42 19.51-5.27-2.41 15.84-4.94 18.79-19.51 19.19-4.45-1.41-9.61-3.25-15.49-5.5-55.71-38.33-87.16-60.83-94.34-67.5-11.09-10.29-59.03-35.05-16.2-90.1a179.784 179.784 0 0 1 41.3-37.84c-28.15 40.35-34.93 70.23-20.35 89.66" style="fill:url(#linear-gradient-4);fill-rule:evenodd;fill-opacity:.5"/><path style="fill:url(#linear-gradient-5);fill-rule:evenodd;fill-opacity:.5" d="m331.92 325.24 40.76 94.87-34.67-6.71-9.65-19.12-8.9-63.54-2.85 1.28v-.27l15.31-6.51z"/><path d="M701.58 250.03h.11l-.61 1.37-.73 1.25c-48.31 82.62-83.83 122.82-106.55 120.61-22.72-2.21-45.19-14.07-67.41-35.6-.25-.37-.5-.75-.73-1.12l3.56-42.4c28.09 37.88 49.61 53.37 64.56 46.48 14.95-6.89 50.88-37.09 107.8-90.59" style="fill:url(#linear-gradient-6);fill-rule:evenodd;fill-opacity:.5"/><path class="cls-9" d="M456.32 106.67c16.61 0 26.17 7.12 28.66 21.36 1.42 34.31 1.82 54.48 1.19 60.52a14.97 14.97 0 0 1-9.83 12.78c-1.27.46-6.05.74-14.35.82v20.65c-15.09 20.65-53.95 0-53.95 0s3.28-16.34 9.81-49c-6.5-3.1-8.56-13.44-1.78-17.05a9.88 9.88 0 0 1 5.43-1.41c1.66-8.31 3.48-17.4 5.45-27.27 2.9-14.24 12.67-21.36 29.32-21.36"/><path d="m424.37 175.34-14.72 39.91 8.05-40.94 6.66 1.03" style="fill-rule:evenodd;fill-opacity:.5;fill:url(#linear-gradient-7)"/><path class="cls-13" d="M424.37 176.09c-6.34 0-9.61-2.46-11.25-4.52a11.114 11.114 0 0 1-1.99-9.42c1.16-4.72 4.84-7.42 10.96-8.05a.8.8 0 0 1 .87.69c.05.43-.26.82-.69.87h-.03c-5.46.57-8.6 2.81-9.59 6.85a9.639 9.639 0 0 0 1.69 8.06c2.05 2.56 5.5 3.92 10.02 3.92.44.07.74.47.67.91-.05.35-.33.62-.67.67z"/><path class="cls-3" d="M474.34 190.72c-7.34.82-12.48-1.98-15.31-8.15"/><path d="M425.12 174.97c-4.36 10.07-14.53 32.18-28.57 4.84a1.39 1.39 0 0 1 1.78-1.78h.16c.66.37 1.5.13 1.86-.54.25-.46.22-1.03-.08-1.46-1.7-2.76-2.2-6.09-1.39-9.22.2-.75.97-1.19 1.72-.99.2.05.38.15.54.28l5.34 4.61a1.384 1.384 0 0 0 2.26-.79l9.56-50.68c4.88-20.17 19.68-25.99 44.39-17.46a1.371 1.371 0 0 0 1.69-1.89l-1.09-2.23c-.32-.71 0-1.54.71-1.86.23-.1.47-.14.72-.12 3.7.39 7.21 1.82 10.13 4.13.54.51 1.4.49 1.91-.06.29-.31.42-.73.35-1.15l-.45-2.88c-.12-.76.4-1.47 1.16-1.59.32-.05.65.01.92.18 13.6 8.01 16.57 16.06 8.9 24.15-.47.48-.54 1.22-.16 1.78 1.89 2.74 7.12 11.21 4.77 18.16a1.351 1.351 0 0 1-2.12.62l-12-9.06c-.24-.18-.54-.28-.84-.28h-30.28c-.76 0-1.38.6-1.38 1.36 0 .45.21.88.58 1.13 3.43 2.29 5.41 6.21 5.22 10.32-.04.76-.68 1.34-1.44 1.3-.23-.01-.45-.08-.65-.2l-6.5-3.86c-.66-.39-1.87.36-1.78 1.46.87 10.57-2.18 17.33-9.15 20.27-.6.24-1.3.03-1.66-.52a11.617 11.617 0 0 0-10.16-4.9c-8.21 0-13.74 17.69 4.97 18.94" style="fill:#02024e;fill-rule:evenodd"/><path class="cls-3" d="m475.42 156.78 3.36 12.92c.08.19.08.4 0 .59-.1.19-.28.32-.48.37-1.81.5-3.68.75-5.55.77-1.61.02-3.2-.25-4.72-.78"/><path class="cls-13" d="m435.3 229.08-5.52 9.1a4.008 4.008 0 0 0 0 4.17l3.56 5.68c.47.74.67 1.61.59 2.47l-9.22 103.12c-.08.85.12 1.7.57 2.42l8.81 14.24a3.949 3.949 0 0 0 6.59.21l9.56-13.35c.51-.73.77-1.6.73-2.49l-5-103.51c-.05-.83.17-1.66.64-2.35l4.63-7.12c.81-1.3.81-2.94 0-4.24l-5.09-8.31a4.004 4.004 0 0 0-3.2-1.89l-4.24-.2c-1.42.03-2.71.81-3.4 2.05z"/><path class="cls-3" d="M458.19 239.56c-.93 0-1.76-.6-2.06-1.48l-4.34-12.62 14.03-11.14-5.48 23.53c-.17.99-1.01 1.73-2.01 1.78l-.12-.07zM420.33 239.71h0c-.59 0-1.12-.36-1.35-.91l-11.3-25.83 20.31 12.57-6.27 13.3c-.25.54-.79.88-1.39.87zM306.41 334.51c-.19 0-.37-.06-.52-.18l-63.3-51.44M283.95 346.21h.02l47.37-21.89M249.76 394.35l65.83 44.79c12.46 11.39 23.96 17.8 34.3 19.17h.14c5.05.69 10.2-.05 14.85-2.15 1.98-.91 3.15-3.15 3.4-6.37 0-.25.06-.49.2-.69 1.19-2.49 1.44-5.32.69-7.97a.997.997 0 0 1 .11-.84c1.45-2.2 2.3-4.75 2.44-7.39.03-.53.47-.94 1-.94 2.69.29 5.35.81 7.96 1.55 7.62 1.78 19.12 4.52 23.14 2.01.61-.37 1.04-.96 1.19-1.66.05-.39-.05-.78-.3-1.09-2.31-3.42-15.75-9.38-66.79-18.37a.992.992 0 0 1-.69-.52l-38.91-72.71M523.59 346.85l4.98-52.71M594.55 282.18s-.02.02-.02.03l-53.4 65.2"/></g><g><path class="cls-4" d="M722.23 119.77V42.81"/><circle class="cls-13" cx="722.23" cy="42.81" r="10.11"/><path class="cls-4" d="M722.23 119.77v76.96"/><circle class="cls-13" cx="722.23" cy="196.73" r="10.11"/><g><path class="cls-4" d="m722.23 119.77 65.89 39.77"/><circle class="cls-13" cx="788.12" cy="159.54" r="10.11"/><path class="cls-4" d="M722.23 119.77 656.34 80"/><circle class="cls-13" cx="656.34" cy="80" r="10.11"/></g><g><path class="cls-4" d="m722.23 119.77-65.89 39.77"/><circle class="cls-13" cx="656.34" cy="159.54" r="10.11"/><path class="cls-4" d="M722.23 119.77 788.12 80"/><circle class="cls-13" cx="788.12" cy="80" r="10.11"/></g><circle class="cls-13" cx="722.23" cy="119.77" r="54.42"/><path d="m746.23 124.33 6.11-1.77-1.01-11.02-6.34-.63c-.68-1.74-1.54-3.37-2.57-4.88l3.07-5.58-8.51-7.08-4.93 4.04c-1.67-.74-3.44-1.29-5.27-1.64l-1.77-6.11-11.02 1.01-.63 6.34c-1.74.68-3.37 1.54-4.88 2.57l-5.58-3.07-7.08 8.51 4.04 4.93c-.74 1.67-1.29 3.44-1.64 5.27l-6.11 1.77 1.01 11.02 6.34.63c.68 1.74 1.54 3.37 2.57 4.88l-3.07 5.58 8.51 7.08 4.93-4.04c1.67.74 3.44 1.29 5.27 1.64l1.77 6.12 11.02-1.01.63-6.34c1.74-.68 3.37-1.54 4.88-2.57l5.58 3.07 7.08-8.51-4.04-4.93c.74-1.67 1.29-3.44 1.64-5.27z" style="fill:url(#linear-gradient-8)"/><circle class="cls-13" cx="722.23" cy="119.77" r="11.68"/></g></svg>